<svg width="32" height="48" viewBox="0 0 32 48" fill="none" xmlns="http://www.w3.org/2000/svg">
<path fill-rule="evenodd" clip-rule="evenodd" d="M8.01822 45.9926C7.90476 46.6366 8.3331 47.2603 8.97353 47.3828C13.7678 48.2987 19.0625 48.1088 22.4608 47.3776C23.5005 47.1543 23.7605 45.7563 22.8389 45.1805C22.1144 44.7281 22.2108 45.2352 18.202 45.5134C15.1783 45.7235 12.2236 45.5581 9.4205 45.0227C9.11405 44.9637 8.80251 45.0255 8.54361 45.196C8.26729 45.3776 8.07587 45.668 8.0184 45.9923L8.01822 45.9926Z" fill="white"/>
<path fill-rule="evenodd" clip-rule="evenodd" d="M19.0441 40.6131C20.2135 40.5327 21.9612 40.3843 23.6282 40.0257C24.2688 39.8885 24.8561 40.3173 24.977 40.915C25.1014 41.5284 24.7081 42.1327 24.1003 42.2622C20.647 42.9985 14.249 43.4639 7.92579 42.2671C7.31529 42.1517 6.90797 41.5569 7.01793 40.9413C7.4 38.8011 9.56669 41.2647 19.0441 40.6131Z" fill="white"/>
<path fill-rule="evenodd" clip-rule="evenodd" d="M15.9952 0.00578628C24.7851 -0.232451 32 6.96955 32 15.9363C32 24.6207 25.5729 28.1454 25.5729 33.6602V34.6797C25.5729 36.441 22.9704 36.4392 22.9704 34.6797V33.6602C22.9704 26.9228 29.3974 23.9198 29.3974 15.9363C29.3974 2.02958 10.9223 -2.25074 4.38148 9.25546C1.98811 13.4656 1.98338 18.5346 4.36897 22.8151C7.57361 28.5671 9.02965 29.2579 9.02965 34.6797C9.02965 36.441 6.42697 36.4392 6.42697 34.6797V33.6602C6.42697 28.1429 0 24.6189 0 15.9363C0 6.95031 7.23824 -0.23302 15.9952 0.00578628Z" fill="white"/>
<path fill-rule="evenodd" clip-rule="evenodd" d="M22.6074 15.0327C22.8697 12.4268 21.6166 9.81226 19.0451 8.64019C15.2207 6.89718 10.7771 9.33394 10.2338 13.4385C10.0094 15.1336 10.5036 16.804 11.563 18.1017C11.9691 18.599 12.7071 18.6778 13.2117 18.277C13.7161 17.8763 13.7957 17.1482 13.3894 16.6506C11.1929 13.9602 13.4523 9.97155 16.9332 10.4199C19.5007 10.7505 21.3295 13.598 19.6898 16.2144C18.9514 17.3927 15.9362 21.989 15.7885 23.1248C15.7885 23.1254 15.4113 25.972 15.4113 25.972C15.3183 26.673 15.8129 27.3108 16.5187 27.4016C17.2617 27.4974 17.9039 26.9531 17.9656 26.263C18.4863 22.5452 18.1081 23.4748 20.6411 19.458C21.5025 18.0921 22.4424 16.6729 22.6074 15.0327Z" fill="#FFCA00"/>
<path fill-rule="evenodd" clip-rule="evenodd" d="M16.388 33.0652C17.2365 33.0652 17.9244 32.3936 17.9244 31.5652C17.9244 30.7368 17.2365 30.0652 16.388 30.0652C15.5394 30.0652 14.8516 30.7368 14.8516 31.5652C14.8516 32.3936 15.5394 33.0652 16.388 33.0652Z" fill="#FFCA00"/>
</svg>
