<svg width="135" height="43" viewBox="0 0 135 43" fill="none" xmlns="http://www.w3.org/2000/svg">
<path fill-rule="evenodd" clip-rule="evenodd" d="M7.01656 40.9926C6.91344 41.6366 7.30273 42.2603 7.88476 42.3828C12.2419 43.2987 17.0538 43.1088 20.1422 42.3776C21.0872 42.1543 21.3235 40.7563 20.4859 40.1805C19.8274 39.7281 19.915 40.2352 16.2718 40.5134C13.5238 40.7235 10.8385 40.5581 8.29098 40.0227C8.01247 39.9637 7.72933 40.0255 7.49404 40.196C7.24292 40.3776 7.06896 40.668 7.01672 40.9923L7.01656 40.9926Z" fill="#0E6CDD"/>
<path fill-rule="evenodd" clip-rule="evenodd" d="M17.375 35.6131C18.4795 35.5327 20.13 35.3843 21.7044 35.0257C22.3094 34.8885 22.8641 35.3173 22.9783 35.915C23.0958 36.5284 22.7243 37.1327 22.1502 37.2622C18.8888 37.9985 12.8463 38.4639 6.87436 37.2671C6.29777 37.1517 5.91308 36.5569 6.01693 35.9413C6.37778 33.8011 8.4241 36.2647 17.375 35.6131Z" fill="#0E6CDD"/>
<path fill-rule="evenodd" clip-rule="evenodd" d="M14.4956 0.00530409C22.4615 -0.21308 29 6.38875 29 14.6083C29 22.5689 23.1755 25.8 23.1755 30.8552V31.7897C23.1755 33.4042 20.817 33.4026 20.817 31.7897V30.8552C20.817 24.6792 26.6414 21.9265 26.6414 14.6083C26.6414 1.86044 9.89832 -2.06318 3.97072 8.48417C1.80173 12.3434 1.79744 16.99 3.95938 20.9138C6.86358 26.1865 8.18312 26.8198 8.18312 31.7897C8.18312 33.4042 5.82445 33.4026 5.82445 31.7897V30.8552C5.82445 25.7976 0 22.5673 0 14.6083C0 6.37112 6.55965 -0.213602 14.4956 0.00530409Z" fill="#0E6CDD"/>
<path fill-rule="evenodd" clip-rule="evenodd" d="M19.9698 13.4795C20.2013 11.0545 19.0952 8.62148 16.8252 7.53077C13.4491 5.90876 9.52652 8.17637 9.04693 11.996C8.84883 13.5734 9.28505 15.1278 10.2202 16.3355C10.5787 16.7983 11.2302 16.8715 11.6757 16.4986C12.1209 16.1257 12.1912 15.4481 11.8326 14.9851C9.89359 12.4815 11.888 8.76971 14.9609 9.18691C17.2273 9.49461 18.8417 12.1444 17.3943 14.5792C16.7424 15.6757 14.0808 19.9529 13.9503 21.0098C13.9503 21.0104 13.6174 23.6594 13.6174 23.6594C13.5353 24.3117 13.9719 24.9053 14.595 24.9898C15.2508 25.0789 15.8178 24.5724 15.8722 23.9302C16.3319 20.4705 15.998 21.3355 18.234 17.5976C18.9945 16.3265 19.8242 15.0058 19.9698 13.4795Z" fill="#FFD740"/>
<path fill-rule="evenodd" clip-rule="evenodd" d="M14.5 31C15.3284 31 16 30.3284 16 29.5C16 28.6716 15.3284 28 14.5 28C13.6716 28 13 28.6716 13 29.5C13 30.3284 13.6716 31 14.5 31Z" fill="#FFCA00"/>
<path d="M49.176 28H47.256V17.2H49.176V28ZM47.016 13.144C47.016 12.808 47.136 12.536 47.376 12.328C47.616 12.104 47.912 11.992 48.264 11.992C48.6 11.992 48.88 12.104 49.104 12.328C49.328 12.536 49.44 12.808 49.44 13.144C49.44 13.512 49.328 13.816 49.104 14.056C48.88 14.28 48.6 14.392 48.264 14.392C47.912 14.392 47.616 14.28 47.376 14.056C47.136 13.816 47.016 13.512 47.016 13.144ZM52.9099 23.896V14.2H54.8299V17.2H58.7899V19H54.8299V23.704C54.8299 25.496 55.4699 26.392 56.7499 26.392C57.3739 26.392 57.9419 26.192 58.4539 25.792L59.0539 27.28C58.3019 27.888 57.3819 28.192 56.2939 28.192C55.1259 28.192 54.2699 27.84 53.7259 27.136C53.1819 26.432 52.9099 25.352 52.9099 23.896ZM61.6108 25.12V11.2H63.5308V24.256C63.5308 25.68 63.9548 26.392 64.8028 26.392C65.2188 26.392 65.6748 26.232 66.1708 25.912L66.6028 27.376C65.9148 27.92 65.0668 28.192 64.0588 28.192C62.4268 28.192 61.6108 27.168 61.6108 25.12ZM68.0438 26.704C68.0438 26.368 68.1718 26.072 68.4277 25.816C68.6998 25.56 69.0278 25.432 69.4118 25.432C69.7478 25.432 70.0438 25.56 70.2998 25.816C70.5558 26.072 70.6838 26.368 70.6838 26.704C70.6838 27.088 70.5638 27.416 70.3238 27.688C70.0838 27.944 69.7798 28.072 69.4118 28.072C69.0278 28.072 68.6998 27.944 68.4277 27.688C68.1718 27.416 68.0438 27.088 68.0438 26.704ZM85.8459 17.2H87.7899L84.3339 28.096H82.6539L79.9659 21.064C79.8379 20.728 79.7019 20.288 79.5579 19.744C79.4139 20.272 79.2619 20.736 79.1019 21.136L76.4859 28.096H74.9019L71.3259 17.2H73.3899L75.5019 24.016C75.5339 24.128 75.5739 24.288 75.6219 24.496C75.6859 24.704 75.7419 24.92 75.7899 25.144C75.8539 25.352 75.8939 25.48 75.9099 25.528C76.1979 24.536 76.3499 24.032 76.3659 24.016L78.8139 17.2H80.4699L82.9419 23.992L83.4459 25.552C83.5579 25.008 83.7019 24.456 83.8779 23.896L85.8459 17.2ZM92.2073 28H90.2873V17.2H92.2073V28ZM90.0473 13.144C90.0473 12.808 90.1673 12.536 90.4073 12.328C90.6473 12.104 90.9433 11.992 91.2953 11.992C91.6313 11.992 91.9113 12.104 92.1353 12.328C92.3593 12.536 92.4713 12.808 92.4713 13.144C92.4713 13.512 92.3593 13.816 92.1353 14.056C91.9113 14.28 91.6313 14.392 91.2953 14.392C90.9433 14.392 90.6473 14.28 90.4073 14.056C90.1673 13.816 90.0473 13.512 90.0473 13.144ZM102.973 17.2H105.421L100.837 22.216L105.997 28H103.381L98.5091 22.36L102.973 17.2ZM98.1011 28H96.1811V11.2H98.1011V28ZM110.418 28H108.498V17.2H110.418V28ZM108.258 13.144C108.258 12.808 108.378 12.536 108.618 12.328C108.858 12.104 109.154 11.992 109.506 11.992C109.842 11.992 110.122 12.104 110.346 12.328C110.57 12.536 110.682 12.808 110.682 13.144C110.682 13.512 110.57 13.816 110.346 14.056C110.122 14.28 109.842 14.392 109.506 14.392C109.154 14.392 108.858 14.28 108.618 14.056C108.378 13.816 108.258 13.512 108.258 13.144Z" fill="#005CCC"/>
</svg>
