<svg width="22" height="22" viewBox="0 0 22 22" fill="none" xmlns="http://www.w3.org/2000/svg">
<path d="M10.6667 0.427246C4.77995 0.427246 0.0104179 5.23975 0.0104179 11.0835C0.0104179 16.9702 4.77995 21.7397 10.6667 21.7397C16.5104 21.7397 21.3229 16.9702 21.3229 11.0835C21.3229 5.23975 16.5104 0.427246 10.6667 0.427246ZM10.6667 19.6772C5.89714 19.6772 2.07292 15.853 2.07292 11.0835C2.07292 6.35693 5.89714 2.48975 10.6667 2.48975C15.3932 2.48975 19.2604 6.35693 19.2604 11.0835C19.2604 15.853 15.3932 19.6772 10.6667 19.6772ZM15.2643 8.72021C15.2643 6.57178 12.987 4.896 10.8815 4.896C8.86198 4.896 7.57292 5.75537 6.58464 7.25928C6.41276 7.47412 6.45573 7.7749 6.67057 7.94678L7.8737 8.84912C8.08854 9.021 8.43229 8.97803 8.60417 8.76318C9.2487 7.94678 9.72136 7.47412 10.7096 7.47412C11.4831 7.47412 12.4284 7.94678 12.4284 8.72021C12.4284 9.27881 11.9557 9.53662 11.1823 9.96631C10.3229 10.4819 9.16276 11.0835 9.16276 12.6304V12.9741C9.16276 13.2749 9.37761 13.4897 9.67839 13.4897H11.612C11.9128 13.4897 12.1276 13.2749 12.1276 12.9741V12.7163C12.1276 11.6421 15.2643 11.5991 15.2643 8.72021ZM12.4714 15.896C12.4714 14.9077 11.6549 14.0913 10.6667 14.0913C9.63542 14.0913 8.86198 14.9077 8.86198 15.896C8.86198 16.9272 9.63542 17.7007 10.6667 17.7007C11.6549 17.7007 12.4714 16.9272 12.4714 15.896Z" fill="white"/>
</svg>
