<svg width="20" height="23" viewBox="0 0 20 23" fill="none" xmlns="http://www.w3.org/2000/svg">
<path d="M13.8242 13.146C12.5781 13.146 12.0195 13.8335 10 13.8335C7.9375 13.8335 7.37891 13.146 6.13281 13.146C2.95312 13.146 0.375 15.7671 0.375 18.9468V20.021C0.375 21.1812 1.27734 22.0835 2.4375 22.0835H17.5625C18.6797 22.0835 19.625 21.1812 19.625 20.021V18.9468C19.625 15.7671 17.0039 13.146 13.8242 13.146ZM17.5625 20.021H2.4375V18.9468C2.4375 16.8843 4.07031 15.2085 6.13281 15.2085C6.77734 15.2085 7.76562 15.896 10 15.896C12.1914 15.896 13.1797 15.2085 13.8242 15.2085C15.8867 15.2085 17.5625 16.8843 17.5625 18.9468V20.021ZM10 12.4585C13.3945 12.4585 16.1875 9.7085 16.1875 6.271C16.1875 2.87646 13.3945 0.0834961 10 0.0834961C6.5625 0.0834961 3.8125 2.87646 3.8125 6.271C3.8125 9.7085 6.5625 12.4585 10 12.4585ZM10 2.146C12.2344 2.146 14.125 4.03662 14.125 6.271C14.125 8.54834 12.2344 10.396 10 10.396C7.72266 10.396 5.875 8.54834 5.875 6.271C5.875 4.03662 7.72266 2.146 10 2.146Z" fill="white"/>
</svg>
